<?xml version="1.0" encoding="UTF-8" standalone="no"?>
<!DOCTYPE svg PUBLIC "-//W3C//DTD SVG 1.1//EN"
 "http://www.w3.org/Graphics/SVG/1.1/DTD/svg11.dtd">
<!-- Generated by graphviz version 2.47.1 (20210417.1919)
 -->
<!-- Title: Graphical Class Hierarchy Pages: 1 -->
<svg width="267pt" height="116pt"
 viewBox="0.00 0.00 267.00 115.50" xmlns="http://www.w3.org/2000/svg" xmlns:xlink="http://www.w3.org/1999/xlink">
<g id="graph0" class="graph" transform="scale(1 1) rotate(0) translate(4 111.5)">
<title>Graphical Class Hierarchy</title>
<polygon fill="white" stroke="transparent" points="-4,4 -4,-111.5 263,-111.5 263,4 -4,4"/>
<!-- Node0 -->
<g id="node1" class="node">
<title>Node0</title>
<g id="a_node1"><a target="_blank" xlink:href="http://en.cppreference.com/w/cpp/types/integral_constant.html" xlink:title=" ">
<polygon fill="white" stroke="black" points="0,-38.5 0,-57.5 77,-57.5 77,-38.5 0,-38.5"/>
<text text-anchor="middle" x="38.5" y="-45.5" font-family="Helvetica,sans-Serif" font-size="10.00">std::true_type</text>
</a>
</g>
</g>
<!-- Node1 -->
<g id="node2" class="node">
<title>Node1</title>
<g id="a_node2"><a xlink:href="dc/d6d/structstd_1_1is__arithmetic_3_01uint256__t_01_4.html" target="_top" xlink:title=" ">
<polygon fill="white" stroke="black" points="140,-77 140,-107 232,-107 232,-77 140,-77"/>
<text text-anchor="start" x="148" y="-95" font-family="Helvetica,sans-Serif" font-size="10.00">std::is_arithmetic</text>
<text text-anchor="middle" x="186" y="-84" font-family="Helvetica,sans-Serif" font-size="10.00">&lt; uint256_t &gt;</text>
</a>
</g>
</g>
<!-- Node0&#45;&gt;Node1 -->
<g id="edge1" class="edge">
<title>Node0&#45;&gt;Node1</title>
<path fill="none" stroke="midnightblue" d="M80.68,-60.45C99.17,-66.04 121.04,-72.66 139.96,-78.38"/>
<polygon fill="midnightblue" stroke="midnightblue" points="81.66,-57.09 71.07,-57.55 79.63,-63.79 81.66,-57.09"/>
</g>
<!-- Node2 -->
<g id="node3" class="node">
<title>Node2</title>
<g id="a_node3"><a xlink:href="d7/d47/structstd_1_1is__integral_3_01uint256__t_01_4.html" target="_top" xlink:title=" ">
<polygon fill="white" stroke="black" points="117,-38.5 117,-57.5 255,-57.5 255,-38.5 117,-38.5"/>
<text text-anchor="middle" x="186" y="-45.5" font-family="Helvetica,sans-Serif" font-size="10.00">std::is_integral&lt; uint256_t &gt;</text>
</a>
</g>
</g>
<!-- Node0&#45;&gt;Node2 -->
<g id="edge2" class="edge">
<title>Node0&#45;&gt;Node2</title>
<path fill="none" stroke="midnightblue" d="M87.64,-48C97.02,-48 107.01,-48 116.9,-48"/>
<polygon fill="midnightblue" stroke="midnightblue" points="87.35,-44.5 77.35,-48 87.35,-51.5 87.35,-44.5"/>
</g>
<!-- Node3 -->
<g id="node4" class="node">
<title>Node3</title>
<g id="a_node4"><a xlink:href="df/d99/structstd_1_1is__unsigned_3_01uint256__t_01_4.html" target="_top" xlink:title=" ">
<polygon fill="white" stroke="black" points="113,-0.5 113,-19.5 259,-19.5 259,-0.5 113,-0.5"/>
<text text-anchor="middle" x="186" y="-7.5" font-family="Helvetica,sans-Serif" font-size="10.00">std::is_unsigned&lt; uint256_t &gt;</text>
</a>
</g>
</g>
<!-- Node0&#45;&gt;Node3 -->
<g id="edge3" class="edge">
<title>Node0&#45;&gt;Node3</title>
<path fill="none" stroke="midnightblue" d="M86.15,-35.82C106.35,-30.54 129.65,-24.46 148.55,-19.52"/>
<polygon fill="midnightblue" stroke="midnightblue" points="85.01,-32.5 76.22,-38.41 86.78,-39.27 85.01,-32.5"/>
</g>
</g>
</svg>
