<?xml version="1.0" encoding="UTF-8" standalone="no"?>
<!DOCTYPE svg PUBLIC "-//W3C//DTD SVG 1.1//EN"
 "http://www.w3.org/Graphics/SVG/1.1/DTD/svg11.dtd">
<!-- Generated by graphviz version 2.47.1 (20210417.1919)
 -->
<!-- Title: ciphers/elliptic_curve_key_exchange.cpp Pages: 1 -->
<svg width="383pt" height="207pt"
 viewBox="0.00 0.00 383.00 207.00" xmlns="http://www.w3.org/2000/svg" xmlns:xlink="http://www.w3.org/1999/xlink">
<g id="graph0" class="graph" transform="scale(1 1) rotate(0) translate(4 203)">
<title>ciphers/elliptic_curve_key_exchange.cpp</title>
<polygon fill="white" stroke="transparent" points="-4,4 -4,-203 379,-203 379,4 -4,4"/>
<!-- Node1 -->
<g id="node1" class="node">
<title>Node1</title>
<g id="a_node1"><a xlink:title="Implementation of Elliptic Curve Diffie Hellman Key Exchange.">
<polygon fill="#bfbfbf" stroke="black" points="156,-168.5 156,-198.5 264,-198.5 264,-168.5 156,-168.5"/>
<text text-anchor="start" x="164" y="-186.5" font-family="Helvetica,sans-Serif" font-size="10.00">ciphers/elliptic_curve</text>
<text text-anchor="middle" x="210" y="-175.5" font-family="Helvetica,sans-Serif" font-size="10.00">_key_exchange.cpp</text>
</a>
</g>
</g>
<!-- Node2 -->
<g id="node2" class="node">
<title>Node2</title>
<g id="a_node2"><a xlink:title=" ">
<polygon fill="white" stroke="#bfbfbf" points="0,-0.5 0,-19.5 56,-19.5 56,-0.5 0,-0.5"/>
<text text-anchor="middle" x="28" y="-7.5" font-family="Helvetica,sans-Serif" font-size="10.00">algorithm</text>
</a>
</g>
</g>
<!-- Node1&#45;&gt;Node2 -->
<g id="edge1" class="edge">
<title>Node1&#45;&gt;Node2</title>
<path fill="none" stroke="midnightblue" d="M155.7,-170.05C131.29,-162.31 103.45,-150.25 83,-132 52.12,-104.44 37.51,-56.09 31.53,-29.62"/>
<polygon fill="midnightblue" stroke="midnightblue" points="34.94,-28.82 29.48,-19.74 28.09,-30.25 34.94,-28.82"/>
</g>
<!-- Node3 -->
<g id="node3" class="node">
<title>Node3</title>
<g id="a_node3"><a xlink:title=" ">
<polygon fill="white" stroke="#bfbfbf" points="185.5,-112.5 185.5,-131.5 234.5,-131.5 234.5,-112.5 185.5,-112.5"/>
<text text-anchor="middle" x="210" y="-119.5" font-family="Helvetica,sans-Serif" font-size="10.00">cassert</text>
</a>
</g>
</g>
<!-- Node1&#45;&gt;Node3 -->
<g id="edge2" class="edge">
<title>Node1&#45;&gt;Node3</title>
<path fill="none" stroke="midnightblue" d="M210,-168.4C210,-160.47 210,-150.46 210,-141.86"/>
<polygon fill="midnightblue" stroke="midnightblue" points="213.5,-141.66 210,-131.66 206.5,-141.66 213.5,-141.66"/>
</g>
<!-- Node4 -->
<g id="node4" class="node">
<title>Node4</title>
<g id="a_node4"><a xlink:title=" ">
<polygon fill="white" stroke="#bfbfbf" points="253,-112.5 253,-131.5 303,-131.5 303,-112.5 253,-112.5"/>
<text text-anchor="middle" x="278" y="-119.5" font-family="Helvetica,sans-Serif" font-size="10.00">iomanip</text>
</a>
</g>
</g>
<!-- Node1&#45;&gt;Node4 -->
<g id="edge3" class="edge">
<title>Node1&#45;&gt;Node4</title>
<path fill="none" stroke="midnightblue" d="M226.12,-168.4C236.4,-159.4 249.75,-147.72 260.33,-138.47"/>
<polygon fill="midnightblue" stroke="midnightblue" points="262.88,-140.88 268.11,-131.66 258.27,-135.61 262.88,-140.88"/>
</g>
<!-- Node5 -->
<g id="node5" class="node">
<title>Node5</title>
<g id="a_node5"><a xlink:title=" ">
<polygon fill="white" stroke="#bfbfbf" points="321,-112.5 321,-131.5 375,-131.5 375,-112.5 321,-112.5"/>
<text text-anchor="middle" x="348" y="-119.5" font-family="Helvetica,sans-Serif" font-size="10.00">iostream</text>
</a>
</g>
</g>
<!-- Node1&#45;&gt;Node5 -->
<g id="edge4" class="edge">
<title>Node1&#45;&gt;Node5</title>
<path fill="none" stroke="midnightblue" d="M242.7,-168.4C265.75,-158.46 296.36,-145.26 318.63,-135.66"/>
<polygon fill="midnightblue" stroke="midnightblue" points="320.12,-138.83 327.92,-131.66 317.35,-132.4 320.12,-138.83"/>
</g>
<!-- Node6 -->
<g id="node6" class="node">
<title>Node6</title>
<g id="a_node6"><a xlink:href="../../da/da3/uint256__t_8hpp.html" target="_top" xlink:title=" ">
<polygon fill="white" stroke="black" points="92.5,-112.5 92.5,-131.5 167.5,-131.5 167.5,-112.5 92.5,-112.5"/>
<text text-anchor="middle" x="130" y="-119.5" font-family="Helvetica,sans-Serif" font-size="10.00">uint256_t.hpp</text>
</a>
</g>
</g>
<!-- Node1&#45;&gt;Node6 -->
<g id="edge5" class="edge">
<title>Node1&#45;&gt;Node6</title>
<path fill="none" stroke="midnightblue" d="M191.04,-168.4C178.58,-159.13 162.3,-147.03 149.69,-137.65"/>
<polygon fill="midnightblue" stroke="midnightblue" points="151.75,-134.82 141.64,-131.66 147.58,-140.43 151.75,-134.82"/>
</g>
<!-- Node7 -->
<g id="node7" class="node">
<title>Node7</title>
<g id="a_node7"><a xlink:title=" ">
<polygon fill="white" stroke="#bfbfbf" points="144.5,-0.5 144.5,-19.5 185.5,-19.5 185.5,-0.5 144.5,-0.5"/>
<text text-anchor="middle" x="165" y="-7.5" font-family="Helvetica,sans-Serif" font-size="10.00">string</text>
</a>
</g>
</g>
<!-- Node6&#45;&gt;Node7 -->
<g id="edge6" class="edge">
<title>Node6&#45;&gt;Node7</title>
<path fill="none" stroke="midnightblue" d="M133.49,-112.46C137.11,-103.46 142.8,-88.86 147,-76 152.06,-60.52 156.93,-42.68 160.33,-29.61"/>
<polygon fill="midnightblue" stroke="midnightblue" points="163.72,-30.46 162.81,-19.91 156.94,-28.73 163.72,-30.46"/>
</g>
<!-- Node8 -->
<g id="node8" class="node">
<title>Node8</title>
<g id="a_node8"><a xlink:title=" ">
<polygon fill="white" stroke="#bfbfbf" points="204,-0.5 204,-19.5 244,-19.5 244,-0.5 204,-0.5"/>
<text text-anchor="middle" x="224" y="-7.5" font-family="Helvetica,sans-Serif" font-size="10.00">utility</text>
</a>
</g>
</g>
<!-- Node6&#45;&gt;Node8 -->
<g id="edge7" class="edge">
<title>Node6&#45;&gt;Node8</title>
<path fill="none" stroke="midnightblue" d="M137.38,-112.37C153.03,-94.05 189.78,-51.05 210.02,-27.36"/>
<polygon fill="midnightblue" stroke="midnightblue" points="212.82,-29.47 216.66,-19.59 207.5,-24.92 212.82,-29.47"/>
</g>
<!-- Node9 -->
<g id="node9" class="node">
<title>Node9</title>
<g id="a_node9"><a xlink:href="../../da/d41/uint128__t_8hpp.html" target="_top" xlink:title=" ">
<polygon fill="white" stroke="black" points="62.5,-56.5 62.5,-75.5 137.5,-75.5 137.5,-56.5 62.5,-56.5"/>
<text text-anchor="middle" x="100" y="-63.5" font-family="Helvetica,sans-Serif" font-size="10.00">uint128_t.hpp</text>
</a>
</g>
</g>
<!-- Node6&#45;&gt;Node9 -->
<g id="edge8" class="edge">
<title>Node6&#45;&gt;Node9</title>
<path fill="none" stroke="midnightblue" d="M125.05,-112.08C120.9,-104.61 114.85,-93.72 109.73,-84.52"/>
<polygon fill="midnightblue" stroke="midnightblue" points="112.78,-82.79 104.86,-75.75 106.66,-86.19 112.78,-82.79"/>
</g>
<!-- Node9&#45;&gt;Node2 -->
<g id="edge9" class="edge">
<title>Node9&#45;&gt;Node2</title>
<path fill="none" stroke="midnightblue" d="M88.43,-56.32C77.58,-48.18 61.12,-35.84 48.12,-26.09"/>
<polygon fill="midnightblue" stroke="midnightblue" points="49.88,-23.03 39.78,-19.83 45.68,-28.63 49.88,-23.03"/>
</g>
<!-- Node9&#45;&gt;Node7 -->
<g id="edge11" class="edge">
<title>Node9&#45;&gt;Node7</title>
<path fill="none" stroke="midnightblue" d="M110.44,-56.32C120.15,-48.26 134.82,-36.08 146.5,-26.37"/>
<polygon fill="midnightblue" stroke="midnightblue" points="148.91,-28.92 154.37,-19.83 144.44,-23.53 148.91,-28.92"/>
</g>
<!-- Node9&#45;&gt;Node8 -->
<g id="edge12" class="edge">
<title>Node9&#45;&gt;Node8</title>
<path fill="none" stroke="midnightblue" d="M119.65,-56.44C139.96,-47.6 171.9,-33.69 195.1,-23.59"/>
<polygon fill="midnightblue" stroke="midnightblue" points="196.67,-26.72 204.44,-19.52 193.88,-20.3 196.67,-26.72"/>
</g>
<!-- Node10 -->
<g id="node10" class="node">
<title>Node10</title>
<g id="a_node10"><a xlink:title=" ">
<polygon fill="white" stroke="#bfbfbf" points="74,-0.5 74,-19.5 126,-19.5 126,-0.5 74,-0.5"/>
<text text-anchor="middle" x="100" y="-7.5" font-family="Helvetica,sans-Serif" font-size="10.00">ostream</text>
</a>
</g>
</g>
<!-- Node9&#45;&gt;Node10 -->
<g id="edge10" class="edge">
<title>Node9&#45;&gt;Node10</title>
<path fill="none" stroke="midnightblue" d="M100,-56.08C100,-49.01 100,-38.86 100,-29.99"/>
<polygon fill="midnightblue" stroke="midnightblue" points="103.5,-29.75 100,-19.75 96.5,-29.75 103.5,-29.75"/>
</g>
</g>
</svg>
