<?xml version="1.0" encoding="UTF-8" standalone="no"?>
<!DOCTYPE svg PUBLIC "-//W3C//DTD SVG 1.1//EN"
 "http://www.w3.org/Graphics/SVG/1.1/DTD/svg11.dtd">
<!-- Generated by graphviz version 7.0.0 (20221023.0053)
 -->
<!-- Title: Matrix::strassens_multiplication Pages: 1 -->
<svg width="625pt" height="319pt"
 viewBox="0.00 0.00 625.00 319.24" xmlns="http://www.w3.org/2000/svg" xmlns:xlink="http://www.w3.org/1999/xlink">
<g id="graph0" class="graph" transform="scale(1 1) rotate(0) translate(4 315.24)">
<title>Matrix::strassens_multiplication</title>
<!-- Node1 -->
<g id="node1" class="node">
<title>Node1</title>
<g id="a_node1"><a xlink:title="Strassens method of multiplying two matrices References: https://en.wikipedia.org/wiki/Strassen_algor...">
<polygon fill="#999999" stroke="#666666" points="155,-189 0,-189 0,-170 155,-170 155,-189"/>
<text text-anchor="middle" x="77.5" y="-177" font-family="Helvetica,sans-Serif" font-size="10.00">Matrix::strassens_multiplication</text>
</a>
</g>
</g>
<!-- Node1&#45;&gt;Node1 -->
<g id="edge11" class="edge">
<title>Node1&#45;&gt;Node1</title>
<path fill="none" stroke="#63b8ff" d="M49.16,-189.37C36.24,-197.94 45.68,-207 77.5,-207 95.4,-207 106.22,-204.13 109.96,-200.1"/>
<polygon fill="#63b8ff" stroke="#63b8ff" points="113.23,-198.86 106.38,-190.78 106.7,-201.37 113.23,-198.86"/>
</g>
<!-- Node2 -->
<g id="node2" class="node">
<title>Node2</title>
<g id="a_node2"><a xlink:href="../../d6/d3f/class_matrix.html#aed4e68ffbb843736404256bc4c104d99" target="_top" xlink:title="Horizontally stack the matrix (one after the other)">
<polygon fill="white" stroke="#666666" points="300.5,-284 216.5,-284 216.5,-265 300.5,-265 300.5,-284"/>
<text text-anchor="middle" x="258.5" y="-272" font-family="Helvetica,sans-Serif" font-size="10.00">Matrix::h_stack</text>
</a>
</g>
</g>
<!-- Node1&#45;&gt;Node2 -->
<g id="edge1" class="edge">
<title>Node1&#45;&gt;Node2</title>
<path fill="none" stroke="#63b8ff" d="M92.14,-189.48C112.76,-204.25 153.44,-232.14 191,-250.5 198.51,-254.17 206.72,-257.58 214.74,-260.62"/>
<polygon fill="#63b8ff" stroke="#63b8ff" points="213.44,-263.87 224.04,-264 215.83,-257.29 213.44,-263.87"/>
</g>
<!-- Node4 -->
<g id="node4" class="node">
<title>Node4</title>
<g id="a_node4"><a target="_blank" xlink:href="http://en.cppreference.com/w/cpp/container/vector/size.html#" xlink:title=" ">
<polygon fill="white" stroke="#666666" points="617,-189 530,-189 530,-170 617,-170 617,-189"/>
<text text-anchor="middle" x="573.5" y="-177" font-family="Helvetica,sans-Serif" font-size="10.00">std::vector::size</text>
</a>
</g>
</g>
<!-- Node1&#45;&gt;Node4 -->
<g id="edge8" class="edge">
<title>Node1&#45;&gt;Node4</title>
<path fill="none" stroke="#63b8ff" d="M100.78,-189.44C123.09,-198.81 158.66,-212.18 191,-217.5 324.07,-239.37 361.42,-226.19 494,-201.5 506.13,-199.24 519.09,-195.97 530.92,-192.64"/>
<polygon fill="#63b8ff" stroke="#63b8ff" points="531.78,-196.04 540.4,-189.88 529.82,-189.32 531.78,-196.04"/>
</g>
<!-- Node5 -->
<g id="node5" class="node">
<title>Node5</title>
<g id="a_node5"><a xlink:href="../../d6/d3f/class_matrix.html#a4a54c2a18d3e42f9d846b7bb48fcfbc9" target="_top" xlink:title="Naive multiplication performed on this.">
<polygon fill="white" stroke="#666666" points="326,-208 191,-208 191,-189 326,-189 326,-208"/>
<text text-anchor="middle" x="258.5" y="-196" font-family="Helvetica,sans-Serif" font-size="10.00">Matrix::naive_multiplication</text>
</a>
</g>
</g>
<!-- Node1&#45;&gt;Node5 -->
<g id="edge4" class="edge">
<title>Node1&#45;&gt;Node5</title>
<path fill="none" stroke="#63b8ff" d="M155.45,-187.67C163.44,-188.52 171.56,-189.38 179.56,-190.23"/>
<polygon fill="#63b8ff" stroke="#63b8ff" points="178.93,-193.68 189.25,-191.26 179.67,-186.72 178.93,-193.68"/>
</g>
<!-- Node6 -->
<g id="node6" class="node">
<title>Node6</title>
<g id="a_node6"><a xlink:href="../../d6/d3f/class_matrix.html#a3d165bb04923819cbd625a319125fc3e" target="_top" xlink:title="Get the matrix shape.">
<polygon fill="white" stroke="#666666" points="462,-132 394,-132 394,-113 462,-113 462,-132"/>
<text text-anchor="middle" x="428" y="-120" font-family="Helvetica,sans-Serif" font-size="10.00">Matrix::size</text>
</a>
</g>
</g>
<!-- Node1&#45;&gt;Node6 -->
<g id="edge6" class="edge">
<title>Node1&#45;&gt;Node6</title>
<path fill="none" stroke="#63b8ff" d="M102.17,-169.6C124.62,-160.68 159.5,-147.98 191,-141.5 256.69,-127.98 334.52,-123.97 382.33,-122.85"/>
<polygon fill="#63b8ff" stroke="#63b8ff" points="382.36,-126.35 392.29,-122.65 382.23,-119.35 382.36,-126.35"/>
</g>
<!-- Node7 -->
<g id="node7" class="node">
<title>Node7</title>
<g id="a_node7"><a xlink:href="../../d6/d3f/class_matrix.html#a66a60698098f8e2ca12feb2af98601dc" target="_top" xlink:title="Creates a new matrix and returns a part of it.">
<polygon fill="white" stroke="#666666" points="293.5,-170 223.5,-170 223.5,-151 293.5,-151 293.5,-170"/>
<text text-anchor="middle" x="258.5" y="-158" font-family="Helvetica,sans-Serif" font-size="10.00">Matrix::slice</text>
</a>
</g>
</g>
<!-- Node1&#45;&gt;Node7 -->
<g id="edge9" class="edge">
<title>Node1&#45;&gt;Node7</title>
<path fill="none" stroke="#63b8ff" d="M155.45,-171.33C174.7,-169.29 194.74,-167.16 211.91,-165.34"/>
<polygon fill="#63b8ff" stroke="#63b8ff" points="212.21,-168.83 221.79,-164.29 211.47,-161.87 212.21,-168.83"/>
</g>
<!-- Node8 -->
<g id="node8" class="node">
<title>Node8</title>
<g id="a_node8"><a xlink:href="../../d6/d3f/class_matrix.html#a49654b84239343c71d8f8b094ba0c07c" target="_top" xlink:title="Horizontally stack the matrix (current matrix above the other)">
<polygon fill="white" stroke="#666666" points="300.5,-94 216.5,-94 216.5,-75 300.5,-75 300.5,-94"/>
<text text-anchor="middle" x="258.5" y="-82" font-family="Helvetica,sans-Serif" font-size="10.00">Matrix::v_stack</text>
</a>
</g>
</g>
<!-- Node1&#45;&gt;Node8 -->
<g id="edge12" class="edge">
<title>Node1&#45;&gt;Node8</title>
<path fill="none" stroke="#63b8ff" d="M92.14,-169.52C112.76,-154.75 153.44,-126.86 191,-108.5 198.51,-104.83 206.72,-101.42 214.74,-98.38"/>
<polygon fill="#63b8ff" stroke="#63b8ff" points="215.83,-101.71 224.04,-95 213.44,-95.13 215.83,-101.71"/>
</g>
<!-- Node3 -->
<g id="node3" class="node">
<title>Node3</title>
<g id="a_node3"><a target="_blank" xlink:href="http://en.cppreference.com/w/cpp/container/vector/push_back.html#" xlink:title=" ">
<polygon fill="white" stroke="#666666" points="486,-284 370,-284 370,-265 486,-265 486,-284"/>
<text text-anchor="middle" x="428" y="-272" font-family="Helvetica,sans-Serif" font-size="10.00">std::vector::push_back</text>
</a>
</g>
</g>
<!-- Node2&#45;&gt;Node3 -->
<g id="edge2" class="edge">
<title>Node2&#45;&gt;Node3</title>
<path fill="none" stroke="#63b8ff" d="M300.9,-274.5C318.24,-274.5 338.85,-274.5 358.34,-274.5"/>
<polygon fill="#63b8ff" stroke="#63b8ff" points="358.13,-278 368.13,-274.5 358.13,-271 358.13,-278"/>
</g>
<!-- Node2&#45;&gt;Node4 -->
<g id="edge3" class="edge">
<title>Node2&#45;&gt;Node4</title>
<path fill="none" stroke="#63b8ff" d="M283.47,-284.44C327.89,-301.2 424.76,-329.89 494,-293.5 531.61,-273.73 554.72,-226.88 565.41,-199.79"/>
<polygon fill="#63b8ff" stroke="#63b8ff" points="568.61,-201.23 568.82,-190.64 562.05,-198.79 568.61,-201.23"/>
</g>
<!-- Node5&#45;&gt;Node4 -->
<g id="edge5" class="edge">
<title>Node5&#45;&gt;Node4</title>
<path fill="none" stroke="#63b8ff" d="M326.26,-194.45C383.64,-190.96 465.31,-186.01 518.6,-182.77"/>
<polygon fill="#63b8ff" stroke="#63b8ff" points="518.57,-186.28 528.34,-182.18 518.15,-179.29 518.57,-186.28"/>
</g>
<!-- Node6&#45;&gt;Node4 -->
<g id="edge7" class="edge">
<title>Node6&#45;&gt;Node4</title>
<path fill="none" stroke="#63b8ff" d="M456.62,-132.39C468.21,-136.62 481.8,-141.69 494,-146.5 508.87,-152.37 525.17,-159.16 539.06,-165.06"/>
<polygon fill="#63b8ff" stroke="#63b8ff" points="537.63,-168.25 548.2,-168.96 540.38,-161.82 537.63,-168.25"/>
</g>
<!-- Node7&#45;&gt;Node4 -->
<g id="edge10" class="edge">
<title>Node7&#45;&gt;Node4</title>
<path fill="none" stroke="#63b8ff" d="M293.89,-162.59C348.12,-165.88 453.96,-172.3 518.43,-176.22"/>
<polygon fill="#63b8ff" stroke="#63b8ff" points="517.87,-179.69 528.06,-176.8 518.29,-172.7 517.87,-179.69"/>
</g>
<!-- Node8&#45;&gt;Node4 -->
<g id="edge16" class="edge">
<title>Node8&#45;&gt;Node4</title>
<path fill="none" stroke="#63b8ff" d="M300.98,-79.7C349.55,-75.87 431.3,-75.12 494,-103.5 521.56,-115.97 545.24,-142.4 559.19,-160.55"/>
<polygon fill="#63b8ff" stroke="#63b8ff" points="556.24,-162.46 565,-168.43 561.88,-158.3 556.24,-162.46"/>
</g>
<!-- Node8&#45;&gt;Node6 -->
<g id="edge15" class="edge">
<title>Node8&#45;&gt;Node6</title>
<path fill="none" stroke="#63b8ff" d="M300.9,-93.89C325.69,-99.52 357.18,-106.66 382.5,-112.4"/>
<polygon fill="#63b8ff" stroke="#63b8ff" points="381.65,-115.8 392.17,-114.6 383.2,-108.97 381.65,-115.8"/>
</g>
<!-- Node9 -->
<g id="node9" class="node">
<title>Node9</title>
<g id="a_node9"><a target="_blank" xlink:href="http://en.cppreference.com/w/cpp/container/vector/back.html#" xlink:title=" ">
<polygon fill="white" stroke="#666666" points="473,-56 383,-56 383,-37 473,-37 473,-56"/>
<text text-anchor="middle" x="428" y="-44" font-family="Helvetica,sans-Serif" font-size="10.00">std::vector::back</text>
</a>
</g>
</g>
<!-- Node8&#45;&gt;Node9 -->
<g id="edge13" class="edge">
<title>Node8&#45;&gt;Node9</title>
<path fill="none" stroke="#63b8ff" d="M300.9,-75.11C322.38,-70.23 348.91,-64.22 372.08,-58.96"/>
<polygon fill="#63b8ff" stroke="#63b8ff" points="372.69,-62.41 381.67,-56.78 371.14,-55.58 372.69,-62.41"/>
</g>
<!-- Node10 -->
<g id="node10" class="node">
<title>Node10</title>
<g id="a_node10"><a target="_blank" xlink:href="http://en.cppreference.com/w/cpp/container/vector/emplace_back.html#" xlink:title=" ">
<polygon fill="white" stroke="#666666" points="494,-19 362,-19 362,0 494,0 494,-19"/>
<text text-anchor="middle" x="428" y="-7" font-family="Helvetica,sans-Serif" font-size="10.00">std::vector::emplace_back</text>
</a>
</g>
</g>
<!-- Node8&#45;&gt;Node10 -->
<g id="edge14" class="edge">
<title>Node8&#45;&gt;Node10</title>
<path fill="none" stroke="#63b8ff" d="M274.56,-74.62C294.05,-62.19 329.4,-40.85 362,-27.5 366.03,-25.85 370.26,-24.3 374.55,-22.85"/>
<polygon fill="#63b8ff" stroke="#63b8ff" points="375.31,-26.28 383.8,-19.94 373.21,-19.6 375.31,-26.28"/>
</g>
</g>
</svg>
