<?xml version="1.0" encoding="UTF-8" standalone="no"?>
<!DOCTYPE svg PUBLIC "-//W3C//DTD SVG 1.1//EN"
 "http://www.w3.org/Graphics/SVG/1.1/DTD/svg11.dtd">
<!-- Generated by graphviz version 7.0.0 (20221023.0053)
 -->
<!-- Title: Matrix::operator&#45;= Pages: 1 -->
<svg width="329pt" height="46pt"
 viewBox="0.00 0.00 329.00 46.00" xmlns="http://www.w3.org/2000/svg" xmlns:xlink="http://www.w3.org/1999/xlink">
<g id="graph0" class="graph" transform="scale(1 1) rotate(0) translate(4 42)">
<title>Matrix::operator&#45;=</title>
<!-- Node1 -->
<g id="node1" class="node">
<title>Node1</title>
<g id="a_node1"><a xlink:title="Subtract another matrices to current matrix.">
<polygon fill="#999999" stroke="#666666" points="94,-19 0,-19 0,0 94,0 94,-19"/>
<text text-anchor="middle" x="47" y="-7" font-family="Helvetica,sans-Serif" font-size="10.00">Matrix::operator&#45;=</text>
</a>
</g>
</g>
<!-- Node2 -->
<g id="node2" class="node">
<title>Node2</title>
<g id="a_node2"><a xlink:href="../../d6/d3f/class_matrix.html#a3d165bb04923819cbd625a319125fc3e" target="_top" xlink:title="Get the matrix shape.">
<polygon fill="white" stroke="#666666" points="198,-38 130,-38 130,-19 198,-19 198,-38"/>
<text text-anchor="middle" x="164" y="-26" font-family="Helvetica,sans-Serif" font-size="10.00">Matrix::size</text>
</a>
</g>
</g>
<!-- Node1&#45;&gt;Node2 -->
<g id="edge1" class="edge">
<title>Node1&#45;&gt;Node2</title>
<path fill="none" stroke="#63b8ff" d="M94.44,-17.17C102.4,-18.49 110.65,-19.85 118.56,-21.16"/>
<polygon fill="#63b8ff" stroke="#63b8ff" points="117.88,-24.59 128.32,-22.77 119.02,-17.69 117.88,-24.59"/>
</g>
<!-- Node3 -->
<g id="node3" class="node">
<title>Node3</title>
<g id="a_node3"><a target="_blank" xlink:href="http://en.cppreference.com/w/cpp/container/vector/size.html#" xlink:title=" ">
<polygon fill="white" stroke="#666666" points="321,-19 234,-19 234,0 321,0 321,-19"/>
<text text-anchor="middle" x="277.5" y="-7" font-family="Helvetica,sans-Serif" font-size="10.00">std::vector::size</text>
</a>
</g>
</g>
<!-- Node1&#45;&gt;Node3 -->
<g id="edge3" class="edge">
<title>Node1&#45;&gt;Node3</title>
<path fill="none" stroke="#63b8ff" d="M94.24,-9.5C131.31,-9.5 183.4,-9.5 222.4,-9.5"/>
<polygon fill="#63b8ff" stroke="#63b8ff" points="222.29,-13 232.29,-9.5 222.29,-6 222.29,-13"/>
</g>
<!-- Node2&#45;&gt;Node3 -->
<g id="edge2" class="edge">
<title>Node2&#45;&gt;Node3</title>
<path fill="none" stroke="#63b8ff" d="M198.45,-22.8C206.04,-21.51 214.28,-20.1 222.48,-18.71"/>
<polygon fill="#63b8ff" stroke="#63b8ff" points="222.79,-22.2 232.06,-17.07 221.62,-15.3 222.79,-22.2"/>
</g>
</g>
</svg>
