<?xml version="1.0" encoding="UTF-8" standalone="no"?>
<!DOCTYPE svg PUBLIC "-//W3C//DTD SVG 1.1//EN"
 "http://www.w3.org/Graphics/SVG/1.1/DTD/svg11.dtd">
<!-- Generated by graphviz version 7.0.0 (20221023.0053)
 -->
<!-- Title: Matrix::v_stack Pages: 1 -->
<svg width="383pt" height="120pt"
 viewBox="0.00 0.00 383.00 120.00" xmlns="http://www.w3.org/2000/svg" xmlns:xlink="http://www.w3.org/1999/xlink">
<g id="graph0" class="graph" transform="scale(1 1) rotate(0) translate(4 116)">
<title>Matrix::v_stack</title>
<!-- Node1 -->
<g id="node1" class="node">
<title>Node1</title>
<g id="a_node1"><a xlink:title="Horizontally stack the matrix (current matrix above the other)">
<polygon fill="#999999" stroke="#666666" points="84,-56 0,-56 0,-37 84,-37 84,-56"/>
<text text-anchor="middle" x="42" y="-44" font-family="Helvetica,sans-Serif" font-size="10.00">Matrix::v_stack</text>
</a>
</g>
</g>
<!-- Node2 -->
<g id="node2" class="node">
<title>Node2</title>
<g id="a_node2"><a target="_blank" xlink:href="http://en.cppreference.com/w/cpp/container/vector/back.html#" xlink:title=" ">
<polygon fill="white" stroke="#666666" points="231,-112 141,-112 141,-93 231,-93 231,-112"/>
<text text-anchor="middle" x="186" y="-100" font-family="Helvetica,sans-Serif" font-size="10.00">std::vector::back</text>
</a>
</g>
</g>
<!-- Node1&#45;&gt;Node2 -->
<g id="edge1" class="edge">
<title>Node1&#45;&gt;Node2</title>
<path fill="none" stroke="#63b8ff" d="M60.62,-56.39C75.96,-64.7 98.97,-76.48 120,-84.5 124.37,-86.17 128.96,-87.75 133.59,-89.24"/>
<polygon fill="#63b8ff" stroke="#63b8ff" points="132.36,-92.52 142.95,-92.09 134.4,-85.83 132.36,-92.52"/>
</g>
<!-- Node3 -->
<g id="node3" class="node">
<title>Node3</title>
<g id="a_node3"><a target="_blank" xlink:href="http://en.cppreference.com/w/cpp/container/vector/emplace_back.html#" xlink:title=" ">
<polygon fill="white" stroke="#666666" points="252,-75 120,-75 120,-56 252,-56 252,-75"/>
<text text-anchor="middle" x="186" y="-63" font-family="Helvetica,sans-Serif" font-size="10.00">std::vector::emplace_back</text>
</a>
</g>
</g>
<!-- Node1&#45;&gt;Node3 -->
<g id="edge2" class="edge">
<title>Node1&#45;&gt;Node3</title>
<path fill="none" stroke="#63b8ff" d="M84.45,-52.05C92.05,-53.06 100.2,-54.15 108.45,-55.26"/>
<polygon fill="#63b8ff" stroke="#63b8ff" points="107.84,-58.71 118.21,-56.56 108.77,-51.77 107.84,-58.71"/>
</g>
<!-- Node4 -->
<g id="node4" class="node">
<title>Node4</title>
<g id="a_node4"><a xlink:href="../../d6/d3f/class_matrix.html#a3d165bb04923819cbd625a319125fc3e" target="_top" xlink:title="Get the matrix shape.">
<polygon fill="white" stroke="#666666" points="220,-38 152,-38 152,-19 220,-19 220,-38"/>
<text text-anchor="middle" x="186" y="-26" font-family="Helvetica,sans-Serif" font-size="10.00">Matrix::size</text>
</a>
</g>
</g>
<!-- Node1&#45;&gt;Node4 -->
<g id="edge3" class="edge">
<title>Node1&#45;&gt;Node4</title>
<path fill="none" stroke="#63b8ff" d="M84.45,-41.25C102.05,-39.02 122.59,-36.41 140.5,-34.14"/>
<polygon fill="#63b8ff" stroke="#63b8ff" points="140.85,-37.62 150.33,-32.89 139.97,-30.68 140.85,-37.62"/>
</g>
<!-- Node5 -->
<g id="node5" class="node">
<title>Node5</title>
<g id="a_node5"><a target="_blank" xlink:href="http://en.cppreference.com/w/cpp/container/vector/size.html#" xlink:title=" ">
<polygon fill="white" stroke="#666666" points="375,-19 288,-19 288,0 375,0 375,-19"/>
<text text-anchor="middle" x="331.5" y="-7" font-family="Helvetica,sans-Serif" font-size="10.00">std::vector::size</text>
</a>
</g>
</g>
<!-- Node1&#45;&gt;Node5 -->
<g id="edge5" class="edge">
<title>Node1&#45;&gt;Node5</title>
<path fill="none" stroke="#63b8ff" d="M58.79,-36.62C73.86,-27.81 97.54,-15.55 120,-10.5 172.1,1.21 233.29,-0.12 276.23,-3.42"/>
<polygon fill="#63b8ff" stroke="#63b8ff" points="275.8,-6.9 286.05,-4.24 276.38,0.08 275.8,-6.9"/>
</g>
<!-- Node4&#45;&gt;Node5 -->
<g id="edge4" class="edge">
<title>Node4&#45;&gt;Node5</title>
<path fill="none" stroke="#63b8ff" d="M220.28,-24.09C236.95,-21.89 257.56,-19.16 276.42,-16.66"/>
<polygon fill="#63b8ff" stroke="#63b8ff" points="276.64,-20.16 286.09,-15.38 275.72,-13.22 276.64,-20.16"/>
</g>
</g>
</svg>
