<?xml version="1.0" encoding="UTF-8" standalone="no"?>
<!DOCTYPE svg PUBLIC "-//W3C//DTD SVG 1.1//EN"
 "http://www.w3.org/Graphics/SVG/1.1/DTD/svg11.dtd">
<!-- Generated by graphviz version 7.0.0 (20221023.0053)
 -->
<!-- Title: Matrix::strassens_multiplication Pages: 1 -->
<!--zoomable 319 -->
<svg id="main" version="1.1" xmlns="http://www.w3.org/2000/svg" xmlns:xlink="http://www.w3.org/1999/xlink" xml:space="preserve" onload="init(evt)">
<style type="text/css"><![CDATA[
.edge:hover path { stroke: red; }
.edge:hover polygon { stroke: red; fill: red; }
]]></style>
<script type="text/javascript"><![CDATA[
var edges = document.getElementsByTagName('g');
if (edges && edges.length) {
  for (var i=0;i<edges.length;i++) {
    if (edges[i].id.substr(0,4)=='edge') {
      edges[i].setAttribute('class','edge');
    }
  }
}
]]></script>
        <defs>
                <circle id="rim" cx="0" cy="0" r="7"/>
                <circle id="rim2" cx="0" cy="0" r="3.5"/>
                <g id="zoomPlus">
                        <use xlink:href="#rim" fill="#404040">
                                <set attributeName="fill" to="#808080" begin="zoomplus.mouseover" end="zoomplus.mouseout"/>
                        </use>
                        <path d="M-4,0h8M0,-4v8" fill="none" stroke="white" stroke-width="1.5" pointer-events="none"/>
                </g>
                <g id="zoomMin">
                        <use xlink:href="#rim" fill="#404040">
                                <set attributeName="fill" to="#808080" begin="zoomminus.mouseover" end="zoomminus.mouseout"/>
                        </use>
                        <path d="M-4,0h8" fill="none" stroke="white" stroke-width="1.5" pointer-events="none"/>
                </g>
                <g id="dirArrow">
                        <path fill="none" stroke="white" stroke-width="1.5" d="M0,-3.0v7 M-2.5,-0.5L0,-3.0L2.5,-0.5"/>
                </g>
               <g id="resetDef">
                       <use xlink:href="#rim2" fill="#404040">
                               <set attributeName="fill" to="#808080" begin="reset.mouseover" end="reset.mouseout"/>
                       </use>
               </g>
        </defs>

<script type="text/javascript">
var viewWidth = 625;
var viewHeight = 319;
var sectionId = 'dynsection-15';
</script>
<script xlink:href="../../svgpan.js"/>
<svg id="graph" class="graph">
<g id="viewport">
<title>Matrix::strassens_multiplication</title>
<!-- Node1 -->
<g id="node1" class="node">
<title>Node1</title>
<g id="a_node1"><a xlink:title="Strassens method of multiplying two matrices References: https://en.wikipedia.org/wiki/Strassen_algor...">
<polygon fill="#999999" stroke="#666666" points="155,-189 0,-189 0,-170 155,-170 155,-189"/>
<text text-anchor="middle" x="77.5" y="-177" font-family="Helvetica,sans-Serif" font-size="10.00">Matrix::strassens_multiplication</text>
</a>
</g>
</g>
<!-- Node1&#45;&gt;Node1 -->
<g id="edge11" class="edge">
<title>Node1&#45;&gt;Node1</title>
<path fill="none" stroke="#63b8ff" d="M49.16,-189.37C36.24,-197.94 45.68,-207 77.5,-207 95.4,-207 106.22,-204.13 109.96,-200.1"/>
<polygon fill="#63b8ff" stroke="#63b8ff" points="113.23,-198.86 106.38,-190.78 106.7,-201.37 113.23,-198.86"/>
</g>
<!-- Node2 -->
<g id="node2" class="node">
<title>Node2</title>
<g id="a_node2"><a xlink:href="../../d6/d3f/class_matrix.html#aed4e68ffbb843736404256bc4c104d99" target="_top" xlink:title="Horizontally stack the matrix (one after the other)">
<polygon fill="white" stroke="#666666" points="300.5,-284 216.5,-284 216.5,-265 300.5,-265 300.5,-284"/>
<text text-anchor="middle" x="258.5" y="-272" font-family="Helvetica,sans-Serif" font-size="10.00">Matrix::h_stack</text>
</a>
</g>
</g>
<!-- Node1&#45;&gt;Node2 -->
<g id="edge1" class="edge">
<title>Node1&#45;&gt;Node2</title>
<path fill="none" stroke="#63b8ff" d="M92.14,-189.48C112.76,-204.25 153.44,-232.14 191,-250.5 198.51,-254.17 206.72,-257.58 214.74,-260.62"/>
<polygon fill="#63b8ff" stroke="#63b8ff" points="213.44,-263.87 224.04,-264 215.83,-257.29 213.44,-263.87"/>
</g>
<!-- Node4 -->
<g id="node4" class="node">
<title>Node4</title>
<g id="a_node4"><a target="_blank" xlink:href="http://en.cppreference.com/w/cpp/container/vector/size.html#" xlink:title=" ">
<polygon fill="white" stroke="#666666" points="617,-189 530,-189 530,-170 617,-170 617,-189"/>
<text text-anchor="middle" x="573.5" y="-177" font-family="Helvetica,sans-Serif" font-size="10.00">std::vector::size</text>
</a>
</g>
</g>
<!-- Node1&#45;&gt;Node4 -->
<g id="edge8" class="edge">
<title>Node1&#45;&gt;Node4</title>
<path fill="none" stroke="#63b8ff" d="M100.78,-189.44C123.09,-198.81 158.66,-212.18 191,-217.5 324.07,-239.37 361.42,-226.19 494,-201.5 506.13,-199.24 519.09,-195.97 530.92,-192.64"/>
<polygon fill="#63b8ff" stroke="#63b8ff" points="531.78,-196.04 540.4,-189.88 529.82,-189.32 531.78,-196.04"/>
</g>
<!-- Node5 -->
<g id="node5" class="node">
<title>Node5</title>
<g id="a_node5"><a xlink:href="../../d6/d3f/class_matrix.html#a4a54c2a18d3e42f9d846b7bb48fcfbc9" target="_top" xlink:title="Naive multiplication performed on this.">
<polygon fill="white" stroke="#666666" points="326,-208 191,-208 191,-189 326,-189 326,-208"/>
<text text-anchor="middle" x="258.5" y="-196" font-family="Helvetica,sans-Serif" font-size="10.00">Matrix::naive_multiplication</text>
</a>
</g>
</g>
<!-- Node1&#45;&gt;Node5 -->
<g id="edge4" class="edge">
<title>Node1&#45;&gt;Node5</title>
<path fill="none" stroke="#63b8ff" d="M155.45,-187.67C163.44,-188.52 171.56,-189.38 179.56,-190.23"/>
<polygon fill="#63b8ff" stroke="#63b8ff" points="178.93,-193.68 189.25,-191.26 179.67,-186.72 178.93,-193.68"/>
</g>
<!-- Node6 -->
<g id="node6" class="node">
<title>Node6</title>
<g id="a_node6"><a xlink:href="../../d6/d3f/class_matrix.html#a3d165bb04923819cbd625a319125fc3e" target="_top" xlink:title="Get the matrix shape.">
<polygon fill="white" stroke="#666666" points="462,-132 394,-132 394,-113 462,-113 462,-132"/>
<text text-anchor="middle" x="428" y="-120" font-family="Helvetica,sans-Serif" font-size="10.00">Matrix::size</text>
</a>
</g>
</g>
<!-- Node1&#45;&gt;Node6 -->
<g id="edge6" class="edge">
<title>Node1&#45;&gt;Node6</title>
<path fill="none" stroke="#63b8ff" d="M102.17,-169.6C124.62,-160.68 159.5,-147.98 191,-141.5 256.69,-127.98 334.52,-123.97 382.33,-122.85"/>
<polygon fill="#63b8ff" stroke="#63b8ff" points="382.36,-126.35 392.29,-122.65 382.23,-119.35 382.36,-126.35"/>
</g>
<!-- Node7 -->
<g id="node7" class="node">
<title>Node7</title>
<g id="a_node7"><a xlink:href="../../d6/d3f/class_matrix.html#a66a60698098f8e2ca12feb2af98601dc" target="_top" xlink:title="Creates a new matrix and returns a part of it.">
<polygon fill="white" stroke="#666666" points="293.5,-170 223.5,-170 223.5,-151 293.5,-151 293.5,-170"/>
<text text-anchor="middle" x="258.5" y="-158" font-family="Helvetica,sans-Serif" font-size="10.00">Matrix::slice</text>
</a>
</g>
</g>
<!-- Node1&#45;&gt;Node7 -->
<g id="edge9" class="edge">
<title>Node1&#45;&gt;Node7</title>
<path fill="none" stroke="#63b8ff" d="M155.45,-171.33C174.7,-169.29 194.74,-167.16 211.91,-165.34"/>
<polygon fill="#63b8ff" stroke="#63b8ff" points="212.21,-168.83 221.79,-164.29 211.47,-161.87 212.21,-168.83"/>
</g>
<!-- Node8 -->
<g id="node8" class="node">
<title>Node8</title>
<g id="a_node8"><a xlink:href="../../d6/d3f/class_matrix.html#a49654b84239343c71d8f8b094ba0c07c" target="_top" xlink:title="Horizontally stack the matrix (current matrix above the other)">
<polygon fill="white" stroke="#666666" points="300.5,-94 216.5,-94 216.5,-75 300.5,-75 300.5,-94"/>
<text text-anchor="middle" x="258.5" y="-82" font-family="Helvetica,sans-Serif" font-size="10.00">Matrix::v_stack</text>
</a>
</g>
</g>
<!-- Node1&#45;&gt;Node8 -->
<g id="edge12" class="edge">
<title>Node1&#45;&gt;Node8</title>
<path fill="none" stroke="#63b8ff" d="M92.14,-169.52C112.76,-154.75 153.44,-126.86 191,-108.5 198.51,-104.83 206.72,-101.42 214.74,-98.38"/>
<polygon fill="#63b8ff" stroke="#63b8ff" points="215.83,-101.71 224.04,-95 213.44,-95.13 215.83,-101.71"/>
</g>
<!-- Node3 -->
<g id="node3" class="node">
<title>Node3</title>
<g id="a_node3"><a target="_blank" xlink:href="http://en.cppreference.com/w/cpp/container/vector/push_back.html#" xlink:title=" ">
<polygon fill="white" stroke="#666666" points="486,-284 370,-284 370,-265 486,-265 486,-284"/>
<text text-anchor="middle" x="428" y="-272" font-family="Helvetica,sans-Serif" font-size="10.00">std::vector::push_back</text>
</a>
</g>
</g>
<!-- Node2&#45;&gt;Node3 -->
<g id="edge2" class="edge">
<title>Node2&#45;&gt;Node3</title>
<path fill="none" stroke="#63b8ff" d="M300.9,-274.5C318.24,-274.5 338.85,-274.5 358.34,-274.5"/>
<polygon fill="#63b8ff" stroke="#63b8ff" points="358.13,-278 368.13,-274.5 358.13,-271 358.13,-278"/>
</g>
<!-- Node2&#45;&gt;Node4 -->
<g id="edge3" class="edge">
<title>Node2&#45;&gt;Node4</title>
<path fill="none" stroke="#63b8ff" d="M283.47,-284.44C327.89,-301.2 424.76,-329.89 494,-293.5 531.61,-273.73 554.72,-226.88 565.41,-199.79"/>
<polygon fill="#63b8ff" stroke="#63b8ff" points="568.61,-201.23 568.82,-190.64 562.05,-198.79 568.61,-201.23"/>
</g>
<!-- Node5&#45;&gt;Node4 -->
<g id="edge5" class="edge">
<title>Node5&#45;&gt;Node4</title>
<path fill="none" stroke="#63b8ff" d="M326.26,-194.45C383.64,-190.96 465.31,-186.01 518.6,-182.77"/>
<polygon fill="#63b8ff" stroke="#63b8ff" points="518.57,-186.28 528.34,-182.18 518.15,-179.29 518.57,-186.28"/>
</g>
<!-- Node6&#45;&gt;Node4 -->
<g id="edge7" class="edge">
<title>Node6&#45;&gt;Node4</title>
<path fill="none" stroke="#63b8ff" d="M456.62,-132.39C468.21,-136.62 481.8,-141.69 494,-146.5 508.87,-152.37 525.17,-159.16 539.06,-165.06"/>
<polygon fill="#63b8ff" stroke="#63b8ff" points="537.63,-168.25 548.2,-168.96 540.38,-161.82 537.63,-168.25"/>
</g>
<!-- Node7&#45;&gt;Node4 -->
<g id="edge10" class="edge">
<title>Node7&#45;&gt;Node4</title>
<path fill="none" stroke="#63b8ff" d="M293.89,-162.59C348.12,-165.88 453.96,-172.3 518.43,-176.22"/>
<polygon fill="#63b8ff" stroke="#63b8ff" points="517.87,-179.69 528.06,-176.8 518.29,-172.7 517.87,-179.69"/>
</g>
<!-- Node8&#45;&gt;Node4 -->
<g id="edge16" class="edge">
<title>Node8&#45;&gt;Node4</title>
<path fill="none" stroke="#63b8ff" d="M300.98,-79.7C349.55,-75.87 431.3,-75.12 494,-103.5 521.56,-115.97 545.24,-142.4 559.19,-160.55"/>
<polygon fill="#63b8ff" stroke="#63b8ff" points="556.24,-162.46 565,-168.43 561.88,-158.3 556.24,-162.46"/>
</g>
<!-- Node8&#45;&gt;Node6 -->
<g id="edge15" class="edge">
<title>Node8&#45;&gt;Node6</title>
<path fill="none" stroke="#63b8ff" d="M300.9,-93.89C325.69,-99.52 357.18,-106.66 382.5,-112.4"/>
<polygon fill="#63b8ff" stroke="#63b8ff" points="381.65,-115.8 392.17,-114.6 383.2,-108.97 381.65,-115.8"/>
</g>
<!-- Node9 -->
<g id="node9" class="node">
<title>Node9</title>
<g id="a_node9"><a target="_blank" xlink:href="http://en.cppreference.com/w/cpp/container/vector/back.html#" xlink:title=" ">
<polygon fill="white" stroke="#666666" points="473,-56 383,-56 383,-37 473,-37 473,-56"/>
<text text-anchor="middle" x="428" y="-44" font-family="Helvetica,sans-Serif" font-size="10.00">std::vector::back</text>
</a>
</g>
</g>
<!-- Node8&#45;&gt;Node9 -->
<g id="edge13" class="edge">
<title>Node8&#45;&gt;Node9</title>
<path fill="none" stroke="#63b8ff" d="M300.9,-75.11C322.38,-70.23 348.91,-64.22 372.08,-58.96"/>
<polygon fill="#63b8ff" stroke="#63b8ff" points="372.69,-62.41 381.67,-56.78 371.14,-55.58 372.69,-62.41"/>
</g>
<!-- Node10 -->
<g id="node10" class="node">
<title>Node10</title>
<g id="a_node10"><a target="_blank" xlink:href="http://en.cppreference.com/w/cpp/container/vector/emplace_back.html#" xlink:title=" ">
<polygon fill="white" stroke="#666666" points="494,-19 362,-19 362,0 494,0 494,-19"/>
<text text-anchor="middle" x="428" y="-7" font-family="Helvetica,sans-Serif" font-size="10.00">std::vector::emplace_back</text>
</a>
</g>
</g>
<!-- Node8&#45;&gt;Node10 -->
<g id="edge14" class="edge">
<title>Node8&#45;&gt;Node10</title>
<path fill="none" stroke="#63b8ff" d="M274.56,-74.62C294.05,-62.19 329.4,-40.85 362,-27.5 366.03,-25.85 370.26,-24.3 374.55,-22.85"/>
<polygon fill="#63b8ff" stroke="#63b8ff" points="375.31,-26.28 383.8,-19.94 373.21,-19.6 375.31,-26.28"/>
</g>
</g>
</svg>
        <g id="navigator" transform="translate(0 0)" fill="#404254">
                <rect fill="#f2f5e9" fill-opacity="0.5" stroke="#606060" stroke-width=".5" x="0" y="0" width="60" height="60"/>
                <use id="zoomplus" xlink:href="#zoomPlus" x="17" y="9" onmousedown="handleZoom(evt,'in')"/>
                <use id="zoomminus" xlink:href="#zoomMin" x="42" y="9" onmousedown="handleZoom(evt,'out')"/>
                <use id="reset" xlink:href="#resetDef" x="30" y="36" onmousedown="handleReset()"/>
                <g id="arrowUp" xlink:href="#dirArrow" transform="translate(30 24)" onmousedown="handlePan(0,-1)">
                  <use xlink:href="#rim" fill="#404040">
                        <set attributeName="fill" to="#808080" begin="arrowUp.mouseover" end="arrowUp.mouseout"/>
                  </use>
                  <path fill="none" stroke="white" stroke-width="1.5" d="M0,-3.0v7 M-2.5,-0.5L0,-3.0L2.5,-0.5"/>
                </g>
                <g id="arrowRight" xlink:href="#dirArrow" transform="rotate(90) translate(36 -43)" onmousedown="handlePan(1,0)">
                  <use xlink:href="#rim" fill="#404040">
                        <set attributeName="fill" to="#808080" begin="arrowRight.mouseover" end="arrowRight.mouseout"/>
                  </use>
                  <path fill="none" stroke="white" stroke-width="1.5" d="M0,-3.0v7 M-2.5,-0.5L0,-3.0L2.5,-0.5"/>
                </g>
                <g id="arrowDown" xlink:href="#dirArrow" transform="rotate(180) translate(-30 -48)" onmousedown="handlePan(0,1)">
                  <use xlink:href="#rim" fill="#404040">
                        <set attributeName="fill" to="#808080" begin="arrowDown.mouseover" end="arrowDown.mouseout"/>
                  </use>
                  <path fill="none" stroke="white" stroke-width="1.5" d="M0,-3.0v7 M-2.5,-0.5L0,-3.0L2.5,-0.5"/>
                </g>
                <g id="arrowLeft" xlink:href="#dirArrow" transform="rotate(270) translate(-36 17)" onmousedown="handlePan(-1,0)">
                  <use xlink:href="#rim" fill="#404040">
                        <set attributeName="fill" to="#808080" begin="arrowLeft.mouseover" end="arrowLeft.mouseout"/>
                  </use>
                  <path fill="none" stroke="white" stroke-width="1.5" d="M0,-3.0v7 M-2.5,-0.5L0,-3.0L2.5,-0.5"/>
                </g>
        </g>
        <svg viewBox="0 0 15 15" width="100%" height="30px" preserveAspectRatio="xMaxYMin meet">
         <g id="arrow_out" transform="scale(0.3 0.3)">
          <a xlink:href="class_matrix_aa36fc343405ea3f886f0c194cb94da4f_cgraph_org.svg" target="_base">
           <rect id="button" ry="5" rx="5" y="6" x="6" height="38" width="38"
                fill="#f2f5e9" fill-opacity="0.5" stroke="#606060" stroke-width="1.0"/>
           <path id="arrow"
             d="M 11.500037,31.436501 C 11.940474,20.09759 22.043105,11.32322 32.158766,21.979434 L 37.068811,17.246167 C 37.068811,17.246167 37.088388,32 37.088388,32 L 22.160133,31.978069 C 22.160133,31.978069 26.997745,27.140456 26.997745,27.140456 C 18.528582,18.264221 13.291696,25.230495 11.500037,31.436501 z"
             style="fill:#404040;"/>
          </a>
         </g>
        </svg>
</svg>
