<?xml version="1.0" encoding="UTF-8" standalone="no"?>
<!DOCTYPE svg PUBLIC "-//W3C//DTD SVG 1.1//EN"
 "http://www.w3.org/Graphics/SVG/1.1/DTD/svg11.dtd">
<!-- Generated by graphviz version 7.0.0 (20221023.0053)
 -->
<!-- Title: Matrix::operator* Pages: 1 -->
<!--zoomable 361 -->
<svg id="main" version="1.1" xmlns="http://www.w3.org/2000/svg" xmlns:xlink="http://www.w3.org/1999/xlink" xml:space="preserve" onload="init(evt)">
<style type="text/css"><![CDATA[
.edge:hover path { stroke: red; }
.edge:hover polygon { stroke: red; fill: red; }
]]></style>
<script type="text/javascript"><![CDATA[
var edges = document.getElementsByTagName('g');
if (edges && edges.length) {
  for (var i=0;i<edges.length;i++) {
    if (edges[i].id.substr(0,4)=='edge') {
      edges[i].setAttribute('class','edge');
    }
  }
}
]]></script>
        <defs>
                <circle id="rim" cx="0" cy="0" r="7"/>
                <circle id="rim2" cx="0" cy="0" r="3.5"/>
                <g id="zoomPlus">
                        <use xlink:href="#rim" fill="#404040">
                                <set attributeName="fill" to="#808080" begin="zoomplus.mouseover" end="zoomplus.mouseout"/>
                        </use>
                        <path d="M-4,0h8M0,-4v8" fill="none" stroke="white" stroke-width="1.5" pointer-events="none"/>
                </g>
                <g id="zoomMin">
                        <use xlink:href="#rim" fill="#404040">
                                <set attributeName="fill" to="#808080" begin="zoomminus.mouseover" end="zoomminus.mouseout"/>
                        </use>
                        <path d="M-4,0h8" fill="none" stroke="white" stroke-width="1.5" pointer-events="none"/>
                </g>
                <g id="dirArrow">
                        <path fill="none" stroke="white" stroke-width="1.5" d="M0,-3.0v7 M-2.5,-0.5L0,-3.0L2.5,-0.5"/>
                </g>
               <g id="resetDef">
                       <use xlink:href="#rim2" fill="#404040">
                               <set attributeName="fill" to="#808080" begin="reset.mouseover" end="reset.mouseout"/>
                       </use>
               </g>
        </defs>

<script type="text/javascript">
var viewWidth = 750;
var viewHeight = 361;
var sectionId = 'dynsection-5';
</script>
<script xlink:href="../../svgpan.js"/>
<svg id="graph" class="graph">
<g id="viewport">
<title>Matrix::operator*</title>
<!-- Node1 -->
<g id="node1" class="node">
<title>Node1</title>
<g id="a_node1"><a xlink:title="Multiply two matrices and returns a new matrix.">
<polygon fill="#999999" stroke="#666666" points="89,-99.4 0,-99.4 0,-80.4 89,-80.4 89,-99.4"/>
<text text-anchor="middle" x="44.5" y="-87.4" font-family="Helvetica,sans-Serif" font-size="10.00">Matrix::operator*</text>
</a>
</g>
</g>
<!-- Node2 -->
<g id="node2" class="node">
<title>Node2</title>
<g id="a_node2"><a xlink:href="../../d6/d3f/class_matrix.html#a4a54c2a18d3e42f9d846b7bb48fcfbc9" target="_top" xlink:title="Naive multiplication performed on this.">
<polygon fill="white" stroke="#666666" points="451,-23.4 316,-23.4 316,-4.4 451,-4.4 451,-23.4"/>
<text text-anchor="middle" x="383.5" y="-11.4" font-family="Helvetica,sans-Serif" font-size="10.00">Matrix::naive_multiplication</text>
</a>
</g>
</g>
<!-- Node1&#45;&gt;Node2 -->
<g id="edge1" class="edge">
<title>Node1&#45;&gt;Node2</title>
<path fill="none" stroke="#63b8ff" d="M56.66,-80.01C71.23,-67.75 98.06,-47.31 125,-37.9 182.85,-17.69 252.21,-12.21 304.36,-11.49"/>
<polygon fill="#63b8ff" stroke="#63b8ff" points="304.06,-15 314.04,-11.42 304.01,-8 304.06,-15"/>
</g>
<!-- Node3 -->
<g id="node3" class="node">
<title>Node3</title>
<g id="a_node3"><a target="_blank" xlink:href="http://en.cppreference.com/w/cpp/container/vector/size.html#" xlink:title=" ">
<polygon fill="white" stroke="#666666" points="742,-212.4 655,-212.4 655,-193.4 742,-193.4 742,-212.4"/>
<text text-anchor="middle" x="698.5" y="-200.4" font-family="Helvetica,sans-Serif" font-size="10.00">std::vector::size</text>
</a>
</g>
</g>
<!-- Node1&#45;&gt;Node3 -->
<g id="edge5" class="edge">
<title>Node1&#45;&gt;Node3</title>
<path fill="none" stroke="#63b8ff" d="M54.07,-99.7C85.08,-134.39 196.01,-251.77 316,-297.9 442,-346.33 499.76,-382.18 619,-318.9 656.98,-298.74 679.95,-251.08 690.52,-223.54"/>
<polygon fill="#63b8ff" stroke="#63b8ff" points="693.78,-224.8 693.89,-214.2 687.2,-222.42 693.78,-224.8"/>
</g>
<!-- Node4 -->
<g id="node4" class="node">
<title>Node4</title>
<g id="a_node4"><a xlink:href="../../d6/d3f/class_matrix.html#a3d165bb04923819cbd625a319125fc3e" target="_top" xlink:title="Get the matrix shape.">
<polygon fill="white" stroke="#666666" points="587,-61.4 519,-61.4 519,-42.4 587,-42.4 587,-61.4"/>
<text text-anchor="middle" x="553" y="-49.4" font-family="Helvetica,sans-Serif" font-size="10.00">Matrix::size</text>
</a>
</g>
</g>
<!-- Node1&#45;&gt;Node4 -->
<g id="edge3" class="edge">
<title>Node1&#45;&gt;Node4</title>
<path fill="none" stroke="#63b8ff" d="M89.12,-86.63C184.49,-79.47 410.69,-62.5 507.16,-55.26"/>
<polygon fill="#63b8ff" stroke="#63b8ff" points="507.32,-58.76 517.03,-54.52 506.79,-51.78 507.32,-58.76"/>
</g>
<!-- Node5 -->
<g id="node5" class="node">
<title>Node5</title>
<g id="a_node5"><a xlink:href="../../d6/d3f/class_matrix.html#aa36fc343405ea3f886f0c194cb94da4f" target="_top" xlink:title="Strassens method of multiplying two matrices References: https://en.wikipedia.org/wiki/Strassen_algor...">
<polygon fill="white" stroke="#666666" points="280,-137.4 125,-137.4 125,-118.4 280,-118.4 280,-137.4"/>
<text text-anchor="middle" x="202.5" y="-125.4" font-family="Helvetica,sans-Serif" font-size="10.00">Matrix::strassens_multiplication</text>
</a>
</g>
</g>
<!-- Node1&#45;&gt;Node5 -->
<g id="edge6" class="edge">
<title>Node1&#45;&gt;Node5</title>
<path fill="none" stroke="#63b8ff" d="M86.49,-99.88C105.76,-104.58 128.95,-110.23 149.45,-115.22"/>
<polygon fill="#63b8ff" stroke="#63b8ff" points="148.5,-118.59 159.05,-117.56 150.16,-111.79 148.5,-118.59"/>
</g>
<!-- Node2&#45;&gt;Node3 -->
<g id="edge2" class="edge">
<title>Node2&#45;&gt;Node3</title>
<path fill="none" stroke="#63b8ff" d="M437.54,-3.94C488.67,2.61 565.92,4.16 619,-32.9 669.77,-68.35 688.45,-145.15 694.68,-182.15"/>
<polygon fill="#63b8ff" stroke="#63b8ff" points="691.15,-182.2 696.12,-191.56 698.07,-181.15 691.15,-182.2"/>
</g>
<!-- Node4&#45;&gt;Node3 -->
<g id="edge4" class="edge">
<title>Node4&#45;&gt;Node3</title>
<path fill="none" stroke="#63b8ff" d="M587.31,-56.03C598.23,-58.65 609.89,-62.92 619,-69.9 657.34,-99.28 680.6,-153.19 691.01,-182.54"/>
<polygon fill="#63b8ff" stroke="#63b8ff" points="687.59,-183.36 694.11,-191.71 694.23,-181.12 687.59,-183.36"/>
</g>
<!-- Node5&#45;&gt;Node2 -->
<g id="edge10" class="edge">
<title>Node5&#45;&gt;Node2</title>
<path fill="none" stroke="#63b8ff" d="M219.07,-117.98C250.02,-98.27 319.5,-54.03 357.13,-30.06"/>
<polygon fill="#63b8ff" stroke="#63b8ff" points="359.01,-33.01 365.56,-24.69 355.25,-27.11 359.01,-33.01"/>
</g>
<!-- Node5&#45;&gt;Node3 -->
<g id="edge12" class="edge">
<title>Node5&#45;&gt;Node3</title>
<path fill="none" stroke="#63b8ff" d="M213.94,-137.67C232.67,-154.48 273.94,-188.36 316,-201.9 427.99,-237.94 568.24,-224.45 643.62,-212.81"/>
<polygon fill="#63b8ff" stroke="#63b8ff" points="643.89,-216.31 653.21,-211.28 642.78,-209.4 643.89,-216.31"/>
</g>
<!-- Node5&#45;&gt;Node4 -->
<g id="edge11" class="edge">
<title>Node5&#45;&gt;Node4</title>
<path fill="none" stroke="#63b8ff" d="M249.06,-117.96C316.38,-103.28 441.61,-75.97 508.02,-61.49"/>
<polygon fill="#63b8ff" stroke="#63b8ff" points="508.43,-64.98 517.45,-59.43 506.93,-58.14 508.43,-64.98"/>
</g>
<!-- Node5&#45;&gt;Node5 -->
<g id="edge15" class="edge">
<title>Node5&#45;&gt;Node5</title>
<path fill="none" stroke="#63b8ff" d="M177.76,-137.77C166.48,-146.34 174.73,-155.4 202.5,-155.4 218.12,-155.4 227.57,-152.53 230.83,-148.5"/>
<polygon fill="#63b8ff" stroke="#63b8ff" points="234.21,-147.57 227.72,-139.2 227.58,-149.8 234.21,-147.57"/>
</g>
<!-- Node6 -->
<g id="node6" class="node">
<title>Node6</title>
<g id="a_node6"><a xlink:href="../../d6/d3f/class_matrix.html#aed4e68ffbb843736404256bc4c104d99" target="_top" xlink:title="Horizontally stack the matrix (one after the other)">
<polygon fill="white" stroke="#666666" points="425.5,-288.4 341.5,-288.4 341.5,-269.4 425.5,-269.4 425.5,-288.4"/>
<text text-anchor="middle" x="383.5" y="-276.4" font-family="Helvetica,sans-Serif" font-size="10.00">Matrix::h_stack</text>
</a>
</g>
</g>
<!-- Node5&#45;&gt;Node6 -->
<g id="edge7" class="edge">
<title>Node5&#45;&gt;Node6</title>
<path fill="none" stroke="#63b8ff" d="M209.61,-137.66C224.77,-161.14 266.52,-221.33 316,-254.9 321.53,-258.65 327.72,-261.89 334.03,-264.67"/>
<polygon fill="#63b8ff" stroke="#63b8ff" points="332.69,-267.91 343.28,-268.36 335.28,-261.4 332.69,-267.91"/>
</g>
<!-- Node8 -->
<g id="node8" class="node">
<title>Node8</title>
<g id="a_node8"><a xlink:href="../../d6/d3f/class_matrix.html#a66a60698098f8e2ca12feb2af98601dc" target="_top" xlink:title="Creates a new matrix and returns a part of it.">
<polygon fill="white" stroke="#666666" points="418.5,-193.4 348.5,-193.4 348.5,-174.4 418.5,-174.4 418.5,-193.4"/>
<text text-anchor="middle" x="383.5" y="-181.4" font-family="Helvetica,sans-Serif" font-size="10.00">Matrix::slice</text>
</a>
</g>
</g>
<!-- Node5&#45;&gt;Node8 -->
<g id="edge13" class="edge">
<title>Node5&#45;&gt;Node8</title>
<path fill="none" stroke="#63b8ff" d="M235.09,-137.78C264.18,-146.88 307.57,-160.46 339.75,-170.53"/>
<polygon fill="#63b8ff" stroke="#63b8ff" points="338.59,-173.83 349.18,-173.48 340.68,-167.15 338.59,-173.83"/>
</g>
<!-- Node9 -->
<g id="node9" class="node">
<title>Node9</title>
<g id="a_node9"><a xlink:href="../../d6/d3f/class_matrix.html#a49654b84239343c71d8f8b094ba0c07c" target="_top" xlink:title="Horizontally stack the matrix (current matrix above the other)">
<polygon fill="white" stroke="#666666" points="425.5,-137.4 341.5,-137.4 341.5,-118.4 425.5,-118.4 425.5,-137.4"/>
<text text-anchor="middle" x="383.5" y="-125.4" font-family="Helvetica,sans-Serif" font-size="10.00">Matrix::v_stack</text>
</a>
</g>
</g>
<!-- Node5&#45;&gt;Node9 -->
<g id="edge16" class="edge">
<title>Node5&#45;&gt;Node9</title>
<path fill="none" stroke="#63b8ff" d="M280.45,-127.9C297.06,-127.9 314.26,-127.9 329.7,-127.9"/>
<polygon fill="#63b8ff" stroke="#63b8ff" points="329.61,-131.4 339.61,-127.9 329.61,-124.4 329.61,-131.4"/>
</g>
<!-- Node6&#45;&gt;Node3 -->
<g id="edge9" class="edge">
<title>Node6&#45;&gt;Node3</title>
<path fill="none" stroke="#63b8ff" d="M409.93,-288.88C454.63,-304.76 549.16,-330.79 619,-297.9 651.77,-282.47 675.53,-245.9 687.86,-222.9"/>
<polygon fill="#63b8ff" stroke="#63b8ff" points="690.87,-224.7 692.3,-214.2 684.64,-221.52 690.87,-224.7"/>
</g>
<!-- Node7 -->
<g id="node7" class="node">
<title>Node7</title>
<g id="a_node7"><a target="_blank" xlink:href="http://en.cppreference.com/w/cpp/container/vector/push_back.html#" xlink:title=" ">
<polygon fill="white" stroke="#666666" points="611,-288.4 495,-288.4 495,-269.4 611,-269.4 611,-288.4"/>
<text text-anchor="middle" x="553" y="-276.4" font-family="Helvetica,sans-Serif" font-size="10.00">std::vector::push_back</text>
</a>
</g>
</g>
<!-- Node6&#45;&gt;Node7 -->
<g id="edge8" class="edge">
<title>Node6&#45;&gt;Node7</title>
<path fill="none" stroke="#63b8ff" d="M425.9,-278.9C443.24,-278.9 463.85,-278.9 483.34,-278.9"/>
<polygon fill="#63b8ff" stroke="#63b8ff" points="483.13,-282.4 493.13,-278.9 483.13,-275.4 483.13,-282.4"/>
</g>
<!-- Node8&#45;&gt;Node3 -->
<g id="edge14" class="edge">
<title>Node8&#45;&gt;Node3</title>
<path fill="none" stroke="#63b8ff" d="M418.89,-185.99C473.12,-189.28 578.96,-195.7 643.43,-199.62"/>
<polygon fill="#63b8ff" stroke="#63b8ff" points="642.87,-203.09 653.06,-200.2 643.29,-196.1 642.87,-203.09"/>
</g>
<!-- Node9&#45;&gt;Node3 -->
<g id="edge20" class="edge">
<title>Node9&#45;&gt;Node3</title>
<path fill="none" stroke="#63b8ff" d="M425.75,-124.43C473.75,-121.87 554.62,-122.23 619,-145.9 642.3,-154.47 664.8,-172.07 679.69,-185.46"/>
<polygon fill="#63b8ff" stroke="#63b8ff" points="677.11,-187.84 686.81,-192.1 681.88,-182.72 677.11,-187.84"/>
</g>
<!-- Node9&#45;&gt;Node4 -->
<g id="edge19" class="edge">
<title>Node9&#45;&gt;Node4</title>
<path fill="none" stroke="#63b8ff" d="M420.25,-118.01C430.58,-114.37 441.59,-109.69 451,-103.9 469.74,-92.37 467.83,-80.71 487,-69.9 493.43,-66.27 500.64,-63.34 507.86,-60.98"/>
<polygon fill="#63b8ff" stroke="#63b8ff" points="508.63,-64.4 517.25,-58.24 506.67,-57.68 508.63,-64.4"/>
</g>
<!-- Node10 -->
<g id="node10" class="node">
<title>Node10</title>
<g id="a_node10"><a target="_blank" xlink:href="http://en.cppreference.com/w/cpp/container/vector/back.html#" xlink:title=" ">
<polygon fill="white" stroke="#666666" points="598,-98.4 508,-98.4 508,-79.4 598,-79.4 598,-98.4"/>
<text text-anchor="middle" x="553" y="-86.4" font-family="Helvetica,sans-Serif" font-size="10.00">std::vector::back</text>
</a>
</g>
</g>
<!-- Node9&#45;&gt;Node10 -->
<g id="edge17" class="edge">
<title>Node9&#45;&gt;Node10</title>
<path fill="none" stroke="#63b8ff" d="M425.9,-118.26C447.72,-113.18 474.73,-106.89 498.15,-101.44"/>
<polygon fill="#63b8ff" stroke="#63b8ff" points="498.9,-104.86 507.85,-99.18 497.32,-98.04 498.9,-104.86"/>
</g>
<!-- Node11 -->
<g id="node11" class="node">
<title>Node11</title>
<g id="a_node11"><a target="_blank" xlink:href="http://en.cppreference.com/w/cpp/container/vector/emplace_back.html#" xlink:title=" ">
<polygon fill="white" stroke="#666666" points="619,-174.4 487,-174.4 487,-155.4 619,-155.4 619,-174.4"/>
<text text-anchor="middle" x="553" y="-162.4" font-family="Helvetica,sans-Serif" font-size="10.00">std::vector::emplace_back</text>
</a>
</g>
</g>
<!-- Node9&#45;&gt;Node11 -->
<g id="edge18" class="edge">
<title>Node9&#45;&gt;Node11</title>
<path fill="none" stroke="#63b8ff" d="M425.9,-137.05C447.05,-141.72 473.09,-147.47 496,-152.53"/>
<polygon fill="#63b8ff" stroke="#63b8ff" points="494.96,-155.88 505.48,-154.62 496.47,-149.05 494.96,-155.88"/>
</g>
</g>
</svg>
        <g id="navigator" transform="translate(0 0)" fill="#404254">
                <rect fill="#f2f5e9" fill-opacity="0.5" stroke="#606060" stroke-width=".5" x="0" y="0" width="60" height="60"/>
                <use id="zoomplus" xlink:href="#zoomPlus" x="17" y="9" onmousedown="handleZoom(evt,'in')"/>
                <use id="zoomminus" xlink:href="#zoomMin" x="42" y="9" onmousedown="handleZoom(evt,'out')"/>
                <use id="reset" xlink:href="#resetDef" x="30" y="36" onmousedown="handleReset()"/>
                <g id="arrowUp" xlink:href="#dirArrow" transform="translate(30 24)" onmousedown="handlePan(0,-1)">
                  <use xlink:href="#rim" fill="#404040">
                        <set attributeName="fill" to="#808080" begin="arrowUp.mouseover" end="arrowUp.mouseout"/>
                  </use>
                  <path fill="none" stroke="white" stroke-width="1.5" d="M0,-3.0v7 M-2.5,-0.5L0,-3.0L2.5,-0.5"/>
                </g>
                <g id="arrowRight" xlink:href="#dirArrow" transform="rotate(90) translate(36 -43)" onmousedown="handlePan(1,0)">
                  <use xlink:href="#rim" fill="#404040">
                        <set attributeName="fill" to="#808080" begin="arrowRight.mouseover" end="arrowRight.mouseout"/>
                  </use>
                  <path fill="none" stroke="white" stroke-width="1.5" d="M0,-3.0v7 M-2.5,-0.5L0,-3.0L2.5,-0.5"/>
                </g>
                <g id="arrowDown" xlink:href="#dirArrow" transform="rotate(180) translate(-30 -48)" onmousedown="handlePan(0,1)">
                  <use xlink:href="#rim" fill="#404040">
                        <set attributeName="fill" to="#808080" begin="arrowDown.mouseover" end="arrowDown.mouseout"/>
                  </use>
                  <path fill="none" stroke="white" stroke-width="1.5" d="M0,-3.0v7 M-2.5,-0.5L0,-3.0L2.5,-0.5"/>
                </g>
                <g id="arrowLeft" xlink:href="#dirArrow" transform="rotate(270) translate(-36 17)" onmousedown="handlePan(-1,0)">
                  <use xlink:href="#rim" fill="#404040">
                        <set attributeName="fill" to="#808080" begin="arrowLeft.mouseover" end="arrowLeft.mouseout"/>
                  </use>
                  <path fill="none" stroke="white" stroke-width="1.5" d="M0,-3.0v7 M-2.5,-0.5L0,-3.0L2.5,-0.5"/>
                </g>
        </g>
        <svg viewBox="0 0 15 15" width="100%" height="30px" preserveAspectRatio="xMaxYMin meet">
         <g id="arrow_out" transform="scale(0.3 0.3)">
          <a xlink:href="class_matrix_a87e8bd87a0e31f92b4455f090b7b76c3_cgraph_org.svg" target="_base">
           <rect id="button" ry="5" rx="5" y="6" x="6" height="38" width="38"
                fill="#f2f5e9" fill-opacity="0.5" stroke="#606060" stroke-width="1.0"/>
           <path id="arrow"
             d="M 11.500037,31.436501 C 11.940474,20.09759 22.043105,11.32322 32.158766,21.979434 L 37.068811,17.246167 C 37.068811,17.246167 37.088388,32 37.088388,32 L 22.160133,31.978069 C 22.160133,31.978069 26.997745,27.140456 26.997745,27.140456 C 18.528582,18.264221 13.291696,25.230495 11.500037,31.436501 z"
             style="fill:#404040;"/>
          </a>
         </g>
        </svg>
</svg>
