<?xml version="1.0" encoding="UTF-8" standalone="no"?>
<!DOCTYPE svg PUBLIC "-//W3C//DTD SVG 1.1//EN"
 "http://www.w3.org/Graphics/SVG/1.1/DTD/svg11.dtd">
<!-- Generated by graphviz version 7.0.0 (20221023.0053)
 -->
<!-- Title: Matrix::operator+ Pages: 1 -->
<svg width="326pt" height="46pt"
 viewBox="0.00 0.00 326.00 46.00" xmlns="http://www.w3.org/2000/svg" xmlns:xlink="http://www.w3.org/1999/xlink">
<g id="graph0" class="graph" transform="scale(1 1) rotate(0) translate(4 42)">
<title>Matrix::operator+</title>
<!-- Node1 -->
<g id="node1" class="node">
<title>Node1</title>
<g id="a_node1"><a xlink:title="Add two matrices and returns a new matrix.">
<polygon fill="#999999" stroke="#666666" points="91,-19 0,-19 0,0 91,0 91,-19"/>
<text text-anchor="middle" x="45.5" y="-7" font-family="Helvetica,sans-Serif" font-size="10.00">Matrix::operator+</text>
</a>
</g>
</g>
<!-- Node2 -->
<g id="node2" class="node">
<title>Node2</title>
<g id="a_node2"><a xlink:href="../../d6/d3f/class_matrix.html#a3d165bb04923819cbd625a319125fc3e" target="_top" xlink:title="Get the matrix shape.">
<polygon fill="white" stroke="#666666" points="195,-38 127,-38 127,-19 195,-19 195,-38"/>
<text text-anchor="middle" x="161" y="-26" font-family="Helvetica,sans-Serif" font-size="10.00">Matrix::size</text>
</a>
</g>
</g>
<!-- Node1&#45;&gt;Node2 -->
<g id="edge1" class="edge">
<title>Node1&#45;&gt;Node2</title>
<path fill="none" stroke="#63b8ff" d="M91.36,-17.01C99.27,-18.33 107.5,-19.71 115.4,-21.03"/>
<polygon fill="#63b8ff" stroke="#63b8ff" points="114.74,-24.47 125.18,-22.67 115.89,-17.57 114.74,-24.47"/>
</g>
<!-- Node3 -->
<g id="node3" class="node">
<title>Node3</title>
<g id="a_node3"><a target="_blank" xlink:href="http://en.cppreference.com/w/cpp/container/vector/size.html#" xlink:title=" ">
<polygon fill="white" stroke="#666666" points="318,-19 231,-19 231,0 318,0 318,-19"/>
<text text-anchor="middle" x="274.5" y="-7" font-family="Helvetica,sans-Serif" font-size="10.00">std::vector::size</text>
</a>
</g>
</g>
<!-- Node1&#45;&gt;Node3 -->
<g id="edge3" class="edge">
<title>Node1&#45;&gt;Node3</title>
<path fill="none" stroke="#63b8ff" d="M91.35,-9.5C128.08,-9.5 180.17,-9.5 219.25,-9.5"/>
<polygon fill="#63b8ff" stroke="#63b8ff" points="219.15,-13 229.15,-9.5 219.15,-6 219.15,-13"/>
</g>
<!-- Node2&#45;&gt;Node3 -->
<g id="edge2" class="edge">
<title>Node2&#45;&gt;Node3</title>
<path fill="none" stroke="#63b8ff" d="M195.45,-22.8C203.04,-21.51 211.28,-20.1 219.48,-18.71"/>
<polygon fill="#63b8ff" stroke="#63b8ff" points="219.79,-22.2 229.06,-17.07 218.62,-15.3 219.79,-22.2"/>
</g>
</g>
</svg>
